<?xml version="1.0" encoding="UTF-8" standalone="no"?>
<!-- Created with Inkscape (http://www.inkscape.org/) -->

<svg
   xmlns:dc="http://purl.org/dc/elements/1.1/"
   xmlns:cc="http://creativecommons.org/ns#"
   xmlns:rdf="http://www.w3.org/1999/02/22-rdf-syntax-ns#"
   xmlns:svg="http://www.w3.org/2000/svg"
   xmlns="http://www.w3.org/2000/svg"
   xmlns:sodipodi="http://sodipodi.sourceforge.net/DTD/sodipodi-0.dtd"
   xmlns:inkscape="http://www.inkscape.org/namespaces/inkscape"
   width="297mm"
   height="210mm"
   viewBox="0 0 1052.3622 744.09448"
   id="svg2"
   version="1.1"
   inkscape:version="0.91 r13725"
   inkscape:export-filename="/home/gidsi/path8333.png"
   inkscape:export-xdpi="101.12"
   inkscape:export-ydpi="101.12"
   sodipodi:docname="way_of_a_postcard.svg">
  <defs
     id="defs4">
    <marker
       inkscape:stockid="Arrow2Mend05w9"
       orient="auto"
       refY="0"
       refX="0"
       id="Arrow2Mend05w9"
       style="overflow:visible">
      <path
         inkscape:connector-curvature="0"
         id="path10757"
         style="fill:#aaaaaa;fill-rule:evenodd;stroke:#aaaaaa;stroke-width:0.625;stroke-linejoin:round"
         d="M 8.7185878,4.0337352 -2.2072895,0.01601326 8.7185884,-4.0017078 c -1.7454984,2.3720609 -1.7354408,5.6174519 -6e-7,8.035443 z"
         transform="scale(-0.6,-0.6)" />
    </marker>
    <marker
       inkscape:stockid="Arrow2Mend05w9"
       orient="auto"
       refY="0"
       refX="0"
       id="Arrow2Mend05w9-9"
       style="overflow:visible">
      <path
         inkscape:connector-curvature="0"
         id="path10757-1"
         style="fill:#aaaaaa;fill-rule:evenodd;stroke:#aaaaaa;stroke-width:0.625;stroke-linejoin:round"
         d="M 8.7185878,4.0337352 -2.2072895,0.01601326 8.7185884,-4.0017078 c -1.7454984,2.3720609 -1.7354408,5.6174519 -6e-7,8.035443 z"
         transform="scale(-0.6,-0.6)" />
    </marker>
    <marker
       inkscape:stockid="Arrow2Mend05w9"
       orient="auto"
       refY="0"
       refX="0"
       id="Arrow2Mend05w9-3"
       style="overflow:visible">
      <path
         inkscape:connector-curvature="0"
         id="path10757-0"
         style="fill:#aaaaaa;fill-rule:evenodd;stroke:#aaaaaa;stroke-width:0.625;stroke-linejoin:round"
         d="M 8.7185878,4.0337352 -2.2072895,0.01601326 8.7185884,-4.0017078 c -1.7454984,2.3720609 -1.7354408,5.6174519 -6e-7,8.035443 z"
         transform="scale(-0.6,-0.6)" />
    </marker>
    <marker
       inkscape:stockid="Arrow2Mend05w9"
       orient="auto"
       refY="0"
       refX="0"
       id="Arrow2Mend05w9-90"
       style="overflow:visible">
      <path
         inkscape:connector-curvature="0"
         id="path10757-5"
         style="fill:#aaaaaa;fill-rule:evenodd;stroke:#aaaaaa;stroke-width:0.625;stroke-linejoin:round"
         d="M 8.7185878,4.0337352 -2.2072895,0.01601326 8.7185884,-4.0017078 c -1.7454984,2.3720609 -1.7354408,5.6174519 -6e-7,8.035443 z"
         transform="scale(-0.6,-0.6)" />
    </marker>
    <marker
       inkscape:stockid="Arrow2Mend05w9"
       orient="auto"
       refY="0"
       refX="0"
       id="Arrow2Mend05w9-4"
       style="overflow:visible">
      <path
         inkscape:connector-curvature="0"
         id="path10757-9"
         style="fill:#aaaaaa;fill-rule:evenodd;stroke:#aaaaaa;stroke-width:0.625;stroke-linejoin:round"
         d="M 8.7185878,4.0337352 -2.2072895,0.01601326 8.7185884,-4.0017078 c -1.7454984,2.3720609 -1.7354408,5.6174519 -6e-7,8.035443 z"
         transform="scale(-0.6,-0.6)" />
    </marker>
    <marker
       inkscape:stockid="Arrow2Mend05w9"
       orient="auto"
       refY="0"
       refX="0"
       id="Arrow2Mend05w9-0"
       style="overflow:visible">
      <path
         inkscape:connector-curvature="0"
         id="path10757-94"
         style="fill:#aaaaaa;fill-rule:evenodd;stroke:#aaaaaa;stroke-width:0.625;stroke-linejoin:round"
         d="M 8.7185878,4.0337352 -2.2072895,0.01601326 8.7185884,-4.0017078 c -1.7454984,2.3720609 -1.7354408,5.6174519 -6e-7,8.035443 z"
         transform="scale(-0.6,-0.6)" />
    </marker>
  </defs>
  <sodipodi:namedview
     id="base"
     pagecolor="#000000"
     bordercolor="#ffffff"
     borderopacity="0"
     inkscape:pageopacity="0"
     inkscape:pageshadow="2"
     inkscape:zoom="1.4"
     inkscape:cx="497.1147"
     inkscape:cy="344.11807"
     inkscape:document-units="px"
     inkscape:current-layer="layer1"
     showgrid="false"
     inkscape:window-width="3196"
     inkscape:window-height="1737"
     inkscape:window-x="0"
     inkscape:window-y="30"
     inkscape:window-maximized="0" />
  <metadata
     id="metadata7">
    <rdf:RDF>
      <cc:Work
         rdf:about="">
        <dc:format>image/svg+xml</dc:format>
        <dc:type
           rdf:resource="http://purl.org/dc/dcmitype/StillImage" />
        <dc:title></dc:title>
      </cc:Work>
    </rdf:RDF>
  </metadata>
  <g
     inkscape:label="Layer 1"
     inkscape:groupmode="layer"
     id="layer1"
     transform="translate(0,-308.26772)">
    <g
       style="font-style:normal;font-variant:normal;font-weight:normal;font-stretch:normal;font-size:362.12640381px;line-height:125%;font-family:FontAwesome;-inkscape-font-specification:'FontAwesome, Normal';text-align:start;letter-spacing:0px;word-spacing:0px;writing-mode:lr-tb;text-anchor:start;fill:#000000;fill-opacity:1;stroke:none;stroke-width:1px;stroke-linecap:butt;stroke-linejoin:miter;stroke-opacity:1"
       id="text3344">
      <path
         d="m 144.33393,119.70396 q 160.9563,-93.663834 351.01204,-93.663834 190.05574,0 350.10268,93.663834 160.95625,93.66384 254.62015,254.62013 93.6638,160.04694 93.6638,350.10269 0,190.05574 -93.6638,351.01202 -93.6639,160.047 -254.62015,253.7108 -160.04694,93.6638 -350.10268,93.6638 -190.05574,0 -351.01204,-93.6638 -160.046941,-93.6638 -253.71078,-253.7108 -93.66383,-160.95628 -93.66383,-351.01202 0,-190.05575 93.66383,-350.10269 93.663839,-160.95629 253.71078,-254.62013 z m 600.17603,380.11148 q -1.81872,0.90936 -9.09358,9.09358 -6.3655,7.27486 -11.82165,8.18422 1.81872,0 3.63743,-4.54679 2.72807,-4.54679 4.54679,-10.00293 2.72807,-5.45615 3.63743,-6.36551 5.45615,-6.3655 20.00587,-13.64036 12.731,-5.45615 47.28659,-10.91229 30.91816,-7.27486 46.37724,10.00293 -1.81871,-1.81871 8.18422,-11.82165 10.91229,-10.00293 13.64036,-10.91229 2.72808,-1.81871 13.64037,-3.63743 10.91229,-2.72807 13.64036,-7.27486 l 1.81872,-20.00587 q -10.91229,0.90936 -16.36844,-6.3655 -4.54679,-7.27486 -5.45614,-19.09651 0,1.81871 -5.45615,7.27486 0,-6.3655 -4.54679,-7.27486 -3.63743,-0.90936 -10.00293,0.90936 -6.36551,1.81871 -8.18422,0.90935 -9.09358,-2.72807 -13.64036,-6.3655 -4.54679,-4.54679 -7.27487,-15.45908 -2.72807,-10.91229 -3.63743,-13.64036 -1.81871,-4.54679 -9.09357,-9.09358 -6.36551,-5.45614 -8.18422,-10.00293 -0.90936,-1.81872 -2.72807,-4.54679 -0.90936,-3.63743 -2.72808,-6.3655 -0.90935,-2.72808 -3.63743,-4.54679 -1.81871,-2.72807 -4.54679,-2.72807 -2.72807,0 -6.3655,4.54678 -3.63743,4.54679 -7.27486,9.09358 -2.72807,4.54679 -3.63743,4.54679 -2.72807,-1.81872 -5.45615,-0.90936 -2.72807,0 -4.54678,0.90936 -0.90936,0 -3.63743,2.72807 -2.72808,1.81872 -4.54679,2.72807 -2.72808,1.81872 -8.18422,2.72808 -4.54679,0.90935 -7.27486,1.81871 13.64036,-4.54679 -0.90936,-10.00293 -9.09358,-3.63743 -14.54972,-2.72808 8.18422,-3.63743 6.3655,-10.91229 -0.90936,-7.27486 -7.27486,-12.731 l 4.54679,0 q -0.90936,-3.63743 -8.18422,-7.27486 -6.3655,-4.54679 -15.45908,-8.18422 -9.09357,-3.63743 -11.82165,-5.45615 -7.27486,-4.54679 -30.91816,-8.18422 -23.64329,-4.54679 -30.0088,-0.90935 -4.54679,5.45614 -4.54679,10.00293 0.90936,3.63743 3.63743,12.73101 3.63743,8.18421 3.63743,10.91229 0.90936,5.45614 -5.45614,11.82165 -5.45615,6.3655 -5.45615,10.91229 0,6.3655 12.73101,14.54972 12.73101,7.27486 9.09358,19.09651 -2.72808,7.27486 -14.54973,14.54972 -11.82164,7.27486 -14.54972,10.91229 -4.54679,7.27486 -1.81871,17.2778 3.63743,9.09357 10.00293,14.54972 1.81872,1.81871 0.90936,3.63743 0,1.81871 -2.72807,4.54679 -2.72808,1.81871 -5.45615,3.63743 -1.81872,0.90936 -5.45615,2.72807 l -2.72807,1.81872 q -10.00293,4.54678 -19.09651,-5.45615 -8.18422,-10.00293 -11.82165,-23.6433 -6.3655,-22.73394 -14.54972,-27.28073 -20.91522,-7.27486 -26.37137,0.90936 -4.54679,-11.82165 -37.28366,-23.6433 -22.73394,-8.18421 -52.74274,-3.63743 5.45614,-0.90935 0,-13.64036 -6.36551,-13.64037 -17.2778,-10.91229 2.72807,-5.45615 3.63743,-15.45908 0.90936,-10.91229 0.90936,-12.73101 2.72807,-11.82165 10.91229,-20.91522 0.90936,-0.90936 6.3655,-7.27486 5.45615,-7.27487 8.18422,-12.73101 3.63743,-5.45615 0.90936,-5.45615 31.82752,3.63743 45.46788,-10.00293 4.54679,-4.54679 10.00293,-15.45908 6.36551,-10.91229 10.00294,-15.45908 8.18422,-5.45615 12.73101,-4.54679 4.54678,0 12.731,4.54679 9.09358,4.54679 13.64037,4.54679 12.731,0.90936 13.64036,-10.00294 1.81872,-10.91229 -6.3655,-18.18715 10.91229,0.90936 2.72807,-15.45908 -4.54679,-6.3655 -7.27486,-8.18422 -10.91229,-3.63743 -24.55266,4.54679 -7.27486,3.63743 1.81872,7.27486 -0.90936,-0.90935 -9.09358,10.00294 -7.27486,10.00293 -14.54972,15.45908 -7.27486,5.45614 -14.54972,-4.54679 -0.90936,-0.90936 -5.45615,-11.82165 -3.63743,-11.82165 -8.18422,-12.73101 -7.27486,0 -14.54972,13.64037 2.72808,-7.27486 -10.00293,-13.64037 -12.73101,-6.3655 -21.82458,-7.27486 17.27779,-10.91229 -7.27487,-24.55265 -6.3655,-3.63743 -19.0965,-4.54679 -11.82165,-0.90936 -17.2778,3.63743 -4.54679,6.3655 -5.45615,10.91229 0,3.63743 4.54679,7.27486 5.45615,2.72807 10.00294,4.54679 4.54678,1.81871 10.00293,3.63743 6.3655,1.81871 8.18422,2.72807 12.73101,9.09358 7.27486,12.73101 -1.81872,0.90936 -8.18422,3.63743 -5.45614,1.81871 -10.00293,3.63743 -4.54679,1.81872 -5.45615,3.63743 -2.72807,3.63743 0,12.73101 2.72807,9.09357 -1.81871,12.731 -4.54679,-4.54678 -8.18422,-15.45908 -3.63743,-11.82164 -6.36551,-15.45908 6.36551,8.18422 -22.73394,5.45615 l -9.09357,-0.90936 q -3.63743,0 -14.54972,1.81872 -10.9123,1.81871 -19.09651,0.90936 -7.27486,-0.90936 -11.82165,-7.27487 -3.63743,-7.27486 0,-18.18715 0.90935,-3.63743 3.63743,-1.81871 -3.63743,-2.72808 -10.00294,-8.18422 -6.3655,-6.3655 -9.09357,-8.18422 -41.83045,13.64036 -85.47962,37.28366 5.45615,0.90936 10.91229,-0.90936 4.54679,-1.81871 11.82165,-5.45614 7.27486,-4.54679 9.09358,-5.45615 30.91816,-12.731 38.19302,-6.3655 l 4.54679,-4.54679 q 12.731,14.54972 18.18715,22.73394 -6.3655,-3.63743 -27.28073,-0.90936 -18.18715,5.45615 -20.00587,10.9123 6.36551,10.91229 4.54679,16.36843 -3.63743,-2.72807 -10.91229,-9.09357 -6.3655,-6.36551 -12.73101,-10.00294 -6.3655,-3.63743 -13.64036,-4.54678 -14.54972,0 -20.00587,0.90935 -132.766211,72.74861 -213.6990387,201.87739 6.3655033,6.36551 10.9122917,7.27486 3.63743,0.90936 4.546788,8.18422 0.909357,7.27486 1.818715,10.00294 1.818715,2.72807 10.912291,-2.72808 8.184219,7.27486 2.728073,17.2778 0.909358,-0.90936 40.011735,24.55265 17.277795,15.45908 19.09651,19.09651 2.728073,10.00294 -9.093576,16.36844 -0.909358,-1.81871 -8.184218,-8.18422 -7.274861,-6.3655 -8.184219,-3.63743 -2.728073,4.54679 0,17.2778 3.63743,11.82165 10.002934,10.91229 -6.365504,0 -9.093576,14.54972 -1.818716,14.54972 -1.818716,32.73687 0,17.2778 -0.909357,20.91523 l 1.818715,0.90936 q -2.728073,10.91229 4.546788,31.82751 8.184219,20.00587 20.005868,17.2778 -11.821649,2.72807 18.187152,39.10238 5.45615,7.27486 7.27486,8.18421 2.72807,1.81872 10.91229,7.27487 8.18422,4.54678 13.64037,9.09357 5.45614,3.63743 9.09357,9.09358 3.63743,4.54679 9.09358,20.91522 5.45614,15.45908 12.73101,20.91523 -1.81872,5.45614 8.18421,18.18715 10.9123,12.73101 10.00294,20.91523 -0.90936,0 -2.72808,0.90935 -0.90935,0.90936 -1.81871,0.90936 2.72807,6.3655 13.64036,12.73101 11.82165,6.3655 14.54973,11.82165 0.90935,2.72807 1.81871,9.09357 0.90936,6.36551 2.72807,10.00294 1.81872,3.63743 7.27486,1.81871 1.81872,-18.18715 -21.82458,-56.38017 -13.64036,-22.73394 -15.45908,-26.37137 -2.72807,-4.54679 -5.45614,-13.64037 -1.81872,-10.00293 -3.63743,-13.64036 1.81871,0 5.45614,1.81872 3.63743,0.90935 7.27486,2.72807 4.54679,1.81871 7.27486,3.63743 2.72808,1.81871 1.81872,2.72807 -2.72807,6.3655 1.81871,16.36844 4.54679,9.09357 10.9123,16.36844 6.3655,7.27486 15.45908,17.27779 9.09357,10.00293 10.91229,11.82165 5.45614,5.45614 12.731,18.18715 7.27486,11.82165 0,11.82165 8.18422,0 18.18716,9.09358 10.00293,9.09357 15.45908,18.18715 4.54678,7.27486 7.27486,23.6433 2.72807,16.36843 4.54678,21.82458 1.81872,6.3655 7.27486,12.73101 6.36551,5.45614 11.82165,8.18421 5.45615,2.72808 14.54973,7.27487 9.09357,4.54678 11.82164,6.3655 4.54679,1.81871 16.36844,10.00293 12.73101,7.27486 20.00587,10.00294 9.09358,3.63743 14.54972,3.63743 5.45615,0 12.73101,-1.81872 8.18422,-2.72807 12.731,-3.63743 13.64037,-1.81871 26.37138,13.64037 12.731,15.45908 19.09651,19.0965 32.73687,17.2778 50.01466,10.0029 -1.81871,0.9094 0,7.2749 2.72808,5.4561 7.27487,13.6404 5.45614,8.1842 8.18421,13.6403 3.63743,4.5468 5.45615,7.2749 4.54679,5.4561 16.36844,13.6404 11.82165,8.1842 16.36843,13.6403 5.45615,-3.6374 6.36551,-8.1842 -2.72808,7.2749 6.3655,18.1872 9.09358,10.9122 16.36844,9.0935 12.731,-2.728 12.731,-29.0994 -28.19008,13.6403 -44.55852,-16.3685 0,-0.9093 -2.72807,-4.5467 -1.81872,-4.5468 -3.63743,-8.1843 -0.90936,-3.6374 -1.81872,-7.2748 -0.90936,-4.5468 0,-7.2749 0.90936,-2.7281 4.54679,-2.7281 8.18422,0 9.09358,-2.728 0.90935,-3.6375 -1.81872,-11.8217 -2.72807,-8.1842 -3.63743,-11.82162 -0.90936,-7.27487 -10.00293,-18.18716 -9.09358,-10.91229 -10.91229,-13.64036 -4.54679,8.18422 -14.54973,7.27486 -10.00293,-0.90936 -14.54972,-8.18422 0,0.90936 -1.81871,5.45615 -0.90936,3.63743 -0.90936,5.45614 -11.82165,0 -13.64037,-0.90936 0.90936,-2.72807 1.81872,-15.45907 1.81872,-13.64037 3.63743,-20.91523 0.90936,-3.63743 4.54679,-10.91229 4.54679,-7.27486 7.27486,-12.73101 2.72807,-6.3655 3.63743,-11.82165 0.90936,-5.45614 -4.54679,-8.18422 -4.54679,-3.63743 -15.45908,-2.72807 -17.27779,0.90936 -23.6433,18.18715 -0.90935,2.72808 -2.72807,10.00294 -1.81871,6.3655 -4.54679,10.00293 -2.72807,3.63743 -8.18422,6.3655 -6.3655,2.72808 -21.82458,1.81872 -15.45908,-0.90936 -21.82458,-4.54679 -11.82165,-7.27486 -20.91523,-26.37137 -8.18421,-19.09651 -8.18421,-33.64623 0,-9.09358 1.81871,-23.6433 2.72807,-15.45908 2.72807,-22.73394 0.90936,-8.18422 -4.54678,-22.73394 2.72807,-1.81871 8.18421,-8.18422 5.45615,-7.27486 9.09358,-10.00293 1.81872,-0.90936 3.63743,-0.90936 2.72807,-0.90936 4.54679,0 1.81871,0 3.63743,-1.81871 1.81871,-1.81872 2.72807,-5.45615 -0.90936,-0.90936 -3.63743,-2.72807 -2.72807,-2.72808 -3.63743,-2.72808 6.3655,2.72808 25.46201,-0.90935 20.00587,-4.54679 25.46202,0.90935 13.64036,10.00294 20.00587,-1.81871 0,-0.90936 -2.72808,-8.18422 -1.81871,-8.18422 0,-12.73101 4.54679,24.55266 26.37137,8.18422 2.72808,2.72808 13.64037,4.54679 11.82165,1.81872 16.36843,4.54679 2.72808,1.81871 6.36551,5.45614 3.63743,2.72808 4.54679,3.63743 1.81871,0.90936 4.54678,0 3.63743,-1.81871 8.18422,-6.3655 9.09358,12.73101 10.91229,21.82458 10.00294,36.37431 17.2778,40.01174 6.3655,2.72807 10.00293,1.81871 3.63743,-0.90935 3.63743,-8.18421 0.90936,-8.18422 0,-12.73101 0,-5.45615 -0.90935,-11.82165 l -0.90936,-7.27486 q 0,-8.18422 0,-16.36844 l -0.90936,-7.27486 q -13.64036,-2.72807 -17.27779,-10.91229 -2.72808,-8.18422 1.81871,-16.36844 4.54679,-9.09357 13.64036,-17.27779 0.90936,-0.90936 7.27487,-2.72807 6.3655,-2.72808 13.64036,-6.36551 8.18422,-3.63743 11.82165,-7.27486 19.09651,-17.27779 13.64036,-31.82752 6.36551,0 10.00294,-8.18421 -0.90936,0 -4.54679,-2.72808 -3.63743,-2.72807 -7.27486,-4.54679 -2.72807,-1.81871 -3.63743,-1.81871 8.18422,-4.54679 1.81871,-14.54972 4.54679,-2.72807 6.36551,-10.00294 2.72807,-7.27486 7.27486,-9.09357 8.18422,10.91229 19.09651,1.81871 6.3655,-7.27486 0.90935,-14.54972 4.54679,-6.3655 18.18716,-9.09357 14.54972,-3.63744 17.27779,-9.09358 6.3655,1.81871 7.27486,-1.81872 0.90936,-3.63743 0.90936,-10.91229 0,-7.27486 2.72807,-10.91229 3.63743,-4.54679 13.64037,-8.18422 10.00293,-3.63743 11.82165,-4.54679 l 15.45908,-10.00293 q 2.72807,-3.63743 0,-3.63743 16.36843,1.81872 28.19008,-10.00293 9.09358,-10.00294 -5.45614,-18.18716 2.72807,-5.45614 -2.72808,-8.18421 -5.45614,-3.63743 -13.64036,-5.45615 2.72807,-0.90936 10.00293,0 8.18422,0 10.00294,-1.81872 13.64036,-9.09357 -6.36551,-14.54972 -15.45908,-4.54679 -39.10237,10.91229 z m -148.2253,797.50666 q 187.32767,-32.7369 319.18453,-171.8686 -2.72808,-2.7281 -11.82165,-3.6374 -8.18422,-1.8188 -10.91229,-3.6375 -16.36844,-6.3655 -21.82459,-7.2748 0.90936,-6.3655 -2.72807,-11.8217 -2.72807,-5.4561 -7.27486,-8.1842 -3.63743,-2.7281 -10.91229,-7.2749 -7.27486,-4.5468 -10.00293,-6.3655 -1.81872,-1.8187 -6.36551,-5.4561 -4.54679,-3.6374 -6.3655,-4.5468 -1.81872,-1.8187 -7.27486,-4.5468 -4.54679,-2.7281 -7.27486,-1.8187 -2.72808,0.9094 -9.09358,0.9094 l -2.72807,0.9093 q -2.72807,0.9094 -5.45615,2.7281 -1.81871,0.9093 -4.54679,2.7281 -2.72807,0.9093 -3.63743,2.728 -0.90935,0.9094 0,1.8187 -19.09651,-15.459 -32.73687,-20.0058 -4.54679,-0.9094 -10.00293,-4.5468 -5.45615,-4.5468 -10.00294,-6.3655 -3.63743,-2.7281 -9.09357,-1.8187 -4.54679,0.9093 -10.00294,6.3655 -4.54679,4.5468 -5.45614,13.6403 -0.90936,9.0936 -1.81872,11.8217 -6.3655,-4.5468 0,-15.4591 6.3655,-11.8216 1.81872,-17.2778 -2.72808,-5.4561 -10.00294,-3.6374 -6.3655,0.9093 -10.91229,3.6374 -3.63743,2.7281 -10.00293,8.1842 -6.36551,4.5468 -8.18422,5.4562 -1.81872,0.9093 -8.18422,5.4561 -5.45615,3.6375 -7.27486,6.3655 -2.72807,3.6375 -5.45615,10.9123 -2.72807,7.2749 -4.54678,10.0029 -1.81872,-3.6374 -10.9123,-5.4561 -8.18421,-2.7281 -8.18421,-5.4561 1.81871,9.0935 3.63743,31.8275 1.81871,22.7339 4.54678,34.5556 6.36551,28.19 -10.91229,43.6491 -24.55265,22.734 -26.37137,36.3743 -3.63743,20.0059 10.91229,23.6433 0,6.3655 -7.27486,19.0965 -7.27486,11.8217 -6.3655,19.0966 0,5.4561 1.81871,14.5497 z"
         style="font-size:1629.56884766px;fill:#000000"
         id="path4032" />
    </g>
    <g
       style="font-style:normal;font-variant:normal;font-weight:normal;font-stretch:normal;font-size:157.50828552px;line-height:125%;font-family:FontAwesome;-inkscape-font-specification:'FontAwesome, Normal';text-align:start;letter-spacing:0px;word-spacing:0px;writing-mode:lr-tb;text-anchor:start;fill:#00ffff;fill-opacity:1;stroke:none;stroke-width:1px;stroke-linecap:butt;stroke-linejoin:miter;stroke-opacity:1"
       id="text3572">
      <path
         d="m 918.97491,391.33476 q 0,3.51581 -2.46106,5.97687 -2.46107,2.46107 -5.97688,2.46107 -4.48266,0 -7.03162,-3.7795 l -19.95222,-29.97228 -3.95529,0 0,11.60218 21.71013,36.12494 q 0.79105,1.31843 0.79105,2.90055 0,2.28527 -1.67001,3.95528 -1.67,1.67001 -3.95528,1.67001 l -16.87589,0 0,23.90751 q 0,4.04318 -2.90054,6.94373 -2.90055,2.90054 -6.94373,2.90054 l -14.06324,0 q -4.04318,0 -6.94372,-2.90054 -2.90054,-2.90055 -2.90054,-6.94373 l 0,-23.90751 -16.87589,0 q -2.28528,0 -3.95529,-1.67001 -1.67001,-1.67001 -1.67001,-3.95528 0,-1.58212 0.79106,-2.90055 l 21.71013,-36.12494 0,-11.60218 -3.95529,0 -19.95222,29.97228 q -2.54896,3.7795 -7.03162,3.7795 -3.51581,0 -5.97688,-2.46107 -2.46107,-2.46106 -2.46107,-5.97687 0,-2.54897 1.40633,-4.65845 l 22.50118,-33.75178 q 6.41635,-9.40479 15.46957,-9.40479 l 33.75177,0 q 9.05321,0 15.46956,9.40479 l 22.50119,33.75178 q 1.40632,2.10948 1.40632,4.65845 z M 876.6094,307.13111 q 5.80109,5.71319 5.80109,13.88745 0,8.17425 -5.80109,13.97534 -5.71319,5.71319 -13.88745,5.71319 -8.17425,0 -13.97534,-5.71319 -5.71319,-5.80109 -5.71319,-13.97534 0,-8.17426 5.71319,-13.88745 5.80109,-5.80109 13.97534,-5.80109 8.17426,0 13.88745,5.80109 z"
         style=""
         id="path4014" />
    </g>
    <g
       style="font-style:normal;font-variant:normal;font-weight:normal;font-stretch:normal;font-size:158.44038391px;line-height:125%;font-family:FontAwesome;-inkscape-font-specification:'FontAwesome, Normal';text-align:start;letter-spacing:0px;word-spacing:0px;writing-mode:lr-tb;text-anchor:start;fill:#008000;fill-opacity:1;stroke:none;stroke-width:1px;stroke-linecap:butt;stroke-linejoin:miter;stroke-opacity:1"
       id="text3576">
      <path
         d="m 613.0066,921.47453 0,36.7808 q 0,3.53662 -2.47563,6.01225 -2.47563,2.47563 -6.01225,2.47563 -3.53661,0 -6.01224,-2.47563 -2.47563,-2.47563 -2.47563,-6.01225 l 0,-31.12222 -5.65859,0 0,80.63479 q 0,4.0672 -2.91771,6.9849 -2.91771,2.9177 -6.98481,2.9177 -4.06711,0 -6.98482,-2.9177 -2.91771,-2.9177 -2.91771,-6.9849 l 0,-41.02469 -5.65858,0 0,41.02469 q 0,4.0672 -2.91771,6.9849 -2.91771,2.9177 -6.98482,2.9177 -4.06711,0 -6.98481,-2.9177 -2.91771,-2.9177 -2.91771,-6.9849 l 0,-80.63479 -5.65859,0 0,31.12222 q 0,3.53662 -2.47563,6.01225 -2.47563,2.47563 -6.01224,2.47563 -3.53662,0 -6.01225,-2.47563 -2.47563,-2.47563 -2.47563,-6.01225 l 0,-36.7808 q 0,-7.07324 4.95126,-12.0245 4.95126,-4.95126 12.02449,-4.95126 l 56.58586,0 q 7.07323,0 12.02449,4.95126 4.95126,4.95126 4.95126,12.0245 z M 581.70755,867.8948 q 5.83542,5.747 5.83542,13.96963 0,8.22263 -5.83542,14.05805 -5.747,5.747 -13.96963,5.747 -8.22263,0 -14.05805,-5.747 -5.747,-5.83542 -5.747,-14.05805 0,-8.22263 5.747,-13.96963 5.83542,-5.83542 14.05805,-5.83542 8.22263,0 13.96963,5.83542 z"
         style=""
         id="path4023" />
    </g>
    <path
       inkscape:connector-curvature="0"
       id="path8333"
       d="M 859.86213,457.14326 687.95895,401.02528"
       style="fill:none;stroke:#aaaaaa;stroke-width:3.39335108;stroke-linecap:butt;stroke-linejoin:miter;stroke-miterlimit:4;stroke-dasharray:none;stroke-opacity:1;marker-start:none;marker-end:url(#Arrow2Mend05w9)"
       sodipodi:nodetypes="cc" />
    <path
       inkscape:connector-curvature="0"
       id="path8333-3"
       d="M 688.47301,401.64508 572.05856,752.76141"
       style="fill:none;stroke:#aaaaaa;stroke-width:6.98497391;stroke-linecap:butt;stroke-linejoin:miter;stroke-miterlimit:4;stroke-dasharray:none;stroke-opacity:1;marker-start:none;marker-end:url(#Arrow2Mend05w9-9)"
       sodipodi:nodetypes="cc" />
    <path
       inkscape:connector-curvature="0"
       id="path8333-2"
       d="M 569.55042,763.21775 121.21729,679.70485"
       style="fill:none;stroke:#aaaaaa;stroke-width:6.68517923;stroke-linecap:butt;stroke-linejoin:miter;stroke-miterlimit:4;stroke-dasharray:none;stroke-opacity:1;marker-start:none;marker-end:url(#Arrow2Mend05w9-3)"
       sodipodi:nodetypes="cc" />
    <path
       inkscape:connector-curvature="0"
       id="path8333-8"
       d="M 112.47761,677.69361 381.6433,950.89528"
       style="fill:none;stroke:#aaaaaa;stroke-width:9.3688736;stroke-linecap:butt;stroke-linejoin:miter;stroke-miterlimit:4;stroke-dasharray:none;stroke-opacity:1;marker-start:none;marker-end:url(#Arrow2Mend05w9-90)"
       sodipodi:nodetypes="cc" />
    <path
       inkscape:connector-curvature="0"
       id="path8333-6"
       d="m 389.7663,961.91087 176.22097,49.75343"
       style="fill:none;stroke:#aaaaaa;stroke-width:3.23501468;stroke-linecap:butt;stroke-linejoin:miter;stroke-miterlimit:4;stroke-dasharray:none;stroke-opacity:1;marker-start:none;marker-end:url(#Arrow2Mend05w9-0)"
       sodipodi:nodetypes="cc" />
    <g
       style="font-style:normal;font-variant:normal;font-weight:normal;font-stretch:normal;font-size:40px;line-height:125%;font-family:FontAwesome;-inkscape-font-specification:'FontAwesome, Normal';text-align:start;letter-spacing:0px;word-spacing:0px;writing-mode:lr-tb;text-anchor:start;fill:#ffff00;fill-opacity:1;stroke:none;stroke-width:1px;stroke-linecap:butt;stroke-linejoin:miter;stroke-opacity:1"
       id="text3340-2-4">
      <path
         d="m 576.79614,721.30604 q 3.76674,-3.76674 3.76674,-9.0904 0,-5.32366 -3.76674,-9.0904 -3.76674,-3.76675 -9.0904,-3.76675 -5.32366,0 -9.0904,3.76675 -3.76674,3.76674 -3.76674,9.0904 0,5.32366 3.76674,9.0904 3.76674,3.76674 9.0904,3.76674 5.32366,0 9.0904,-3.76674 z m 16.62389,-9.0904 q 0,5.47433 -1.65737,8.98995 l -18.28125,38.87277 q -0.80357,1.65737 -2.41071,2.61161 -1.55692,0.95424 -3.36496,0.95424 -1.80803,0 -3.41518,-0.95424 -1.55692,-0.95424 -2.31027,-2.61161 l -18.33147,-38.87277 q -1.65736,-3.51562 -1.65736,-8.98995 0,-10.64732 7.53348,-18.18081 7.53348,-7.53348 18.1808,-7.53348 10.64732,0 18.1808,7.53348 7.53349,7.53349 7.53349,18.18081 z"
         style="font-size:90px;fill:#ffff00"
         id="path4020" />
    </g>
    <g
       style="font-style:normal;font-variant:normal;font-weight:normal;font-stretch:normal;font-size:40px;line-height:125%;font-family:FontAwesome;-inkscape-font-specification:'FontAwesome, Normal';text-align:start;letter-spacing:0px;word-spacing:0px;writing-mode:lr-tb;text-anchor:start;fill:#808000;fill-opacity:1;stroke:none;stroke-width:1px;stroke-linecap:butt;stroke-linejoin:miter;stroke-opacity:1"
       id="text3340-2">
      <path
         d="m 699.0246,356.64103 q 3.76674,-3.76674 3.76674,-9.0904 0,-5.32366 -3.76674,-9.0904 -3.76674,-3.76674 -9.0904,-3.76674 -5.32367,0 -9.09041,3.76674 -3.76674,3.76674 -3.76674,9.0904 0,5.32366 3.76674,9.0904 3.76674,3.76674 9.09041,3.76674 5.32366,0 9.0904,-3.76674 z m 16.62388,-9.0904 q 0,5.47433 -1.65736,8.98995 l -18.28125,38.87277 q -0.80358,1.65737 -2.41072,2.61161 -1.55692,0.95424 -3.36495,0.95424 -1.80804,0 -3.41518,-0.95424 -1.55692,-0.95424 -2.31027,-2.61161 l -18.33147,-38.87277 q -1.65737,-3.51562 -1.65737,-8.98995 0,-10.64732 7.53348,-18.1808 7.53348,-7.53349 18.18081,-7.53349 10.64732,0 18.1808,7.53349 7.53348,7.53348 7.53348,18.1808 z"
         style="font-size:90px;fill:#808000"
         id="path4017" />
    </g>
    <g
       style="font-style:normal;font-variant:normal;font-weight:normal;font-stretch:normal;font-size:40px;line-height:125%;font-family:FontAwesome;-inkscape-font-specification:'FontAwesome, Normal';text-align:start;letter-spacing:0px;word-spacing:0px;writing-mode:lr-tb;text-anchor:start;fill:#800000;fill-opacity:1;stroke:none;stroke-width:1px;stroke-linecap:butt;stroke-linejoin:miter;stroke-opacity:1"
       id="text3340">
      <path
         d="m 121.35583,637.37861 q 3.76675,-3.76674 3.76675,-9.0904 0,-5.32366 -3.76675,-9.0904 -3.76674,-3.76674 -9.0904,-3.76674 -5.32366,0 -9.0904,3.76674 -3.76674,3.76674 -3.76674,9.0904 0,5.32366 3.76674,9.0904 3.76674,3.76674 9.0904,3.76674 5.32366,0 9.0904,-3.76674 z m 16.62389,-9.0904 q 0,5.47433 -1.65737,8.98995 l -18.28125,38.87277 q -0.80357,1.65737 -2.41071,2.61161 -1.55692,0.95424 -3.36496,0.95424 -1.80803,0 -3.41518,-0.95424 -1.55692,-0.95424 -2.31026,-2.61161 L 88.208514,637.27816 q -1.657367,-3.51562 -1.657367,-8.98995 0,-10.64732 7.533483,-18.18081 7.53348,-7.53348 18.1808,-7.53348 10.64732,0 18.18081,7.53348 7.53348,7.53349 7.53348,18.18081 z"
         style="font-size:90px;fill:#800000"
         id="path4029" />
    </g>
    <g
       style="font-style:normal;font-variant:normal;font-weight:normal;font-stretch:normal;font-size:40px;line-height:125%;font-family:FontAwesome;-inkscape-font-specification:'FontAwesome, Normal';text-align:start;letter-spacing:0px;word-spacing:0px;writing-mode:lr-tb;text-anchor:start;fill:#ff00ff;fill-opacity:1;stroke:none;stroke-width:1px;stroke-linecap:butt;stroke-linejoin:miter;stroke-opacity:1"
       id="text3340-2-4-5">
      <path
         d="m 399.00925,921.31629 q 3.76674,-3.76674 3.76674,-9.0904 0,-5.32366 -3.76674,-9.0904 -3.76674,-3.76674 -9.0904,-3.76674 -5.32367,0 -9.09041,3.76674 -3.76674,3.76674 -3.76674,9.0904 0,5.32366 3.76674,9.0904 3.76674,3.76674 9.09041,3.76674 5.32366,0 9.0904,-3.76674 z m 16.62388,-9.0904 q 0,5.47433 -1.65737,8.98996 l -18.28125,38.87276 q -0.80357,1.65737 -2.41071,2.61161 -1.55692,0.95424 -3.36495,0.95424 -1.80804,0 -3.41518,-0.95424 -1.55692,-0.95424 -2.31027,-2.61161 l -18.33147,-38.87276 q -1.65737,-3.51563 -1.65737,-8.98996 0,-10.64732 7.53348,-18.1808 7.53348,-7.53348 18.18081,-7.53348 10.64732,0 18.1808,7.53348 7.53348,7.53348 7.53348,18.1808 z"
         style="font-size:90px;fill:#ff00ff"
         id="path4026" />
    </g>
  </g>
</svg>
