<?xml version="1.0" encoding="UTF-8" standalone="no"?>
<!-- Created with Inkscape (http://www.inkscape.org/) -->

<svg
   xmlns:dc="http://purl.org/dc/elements/1.1/"
   xmlns:cc="http://creativecommons.org/ns#"
   xmlns:rdf="http://www.w3.org/1999/02/22-rdf-syntax-ns#"
   xmlns:svg="http://www.w3.org/2000/svg"
   xmlns="http://www.w3.org/2000/svg"
   xmlns:sodipodi="http://sodipodi.sourceforge.net/DTD/sodipodi-0.dtd"
   xmlns:inkscape="http://www.inkscape.org/namespaces/inkscape"
   width="297mm"
   height="210mm"
   viewBox="0 0 1052.3622 744.09448"
   id="svg2"
   version="1.1"
   inkscape:version="0.91 r13725"
   inkscape:export-filename="/home/gidsi/path8333.png"
   inkscape:export-xdpi="101.12"
   inkscape:export-ydpi="101.12"
   sodipodi:docname="way_of_a_postcard.svg">
  <defs
     id="defs4">
    <marker
       inkscape:stockid="Arrow2Mend05w9"
       orient="auto"
       refY="0"
       refX="0"
       id="Arrow2Mend05w9"
       style="overflow:visible">
      <path
         inkscape:connector-curvature="0"
         id="path10757"
         style="fill:#aaaaaa;fill-rule:evenodd;stroke:#aaaaaa;stroke-width:0.625;stroke-linejoin:round"
         d="M 8.7185878,4.0337352 -2.2072895,0.01601326 8.7185884,-4.0017078 c -1.7454984,2.3720609 -1.7354408,5.6174519 -6e-7,8.035443 z"
         transform="scale(-0.6,-0.6)" />
    </marker>
    <marker
       inkscape:stockid="Arrow2Mend05w9"
       orient="auto"
       refY="0"
       refX="0"
       id="Arrow2Mend05w9-9"
       style="overflow:visible">
      <path
         inkscape:connector-curvature="0"
         id="path10757-1"
         style="fill:#aaaaaa;fill-rule:evenodd;stroke:#aaaaaa;stroke-width:0.625;stroke-linejoin:round"
         d="M 8.7185878,4.0337352 -2.2072895,0.01601326 8.7185884,-4.0017078 c -1.7454984,2.3720609 -1.7354408,5.6174519 -6e-7,8.035443 z"
         transform="scale(-0.6,-0.6)" />
    </marker>
    <marker
       inkscape:stockid="Arrow2Mend05w9"
       orient="auto"
       refY="0"
       refX="0"
       id="Arrow2Mend05w9-3"
       style="overflow:visible">
      <path
         inkscape:connector-curvature="0"
         id="path10757-0"
         style="fill:#aaaaaa;fill-rule:evenodd;stroke:#aaaaaa;stroke-width:0.625;stroke-linejoin:round"
         d="M 8.7185878,4.0337352 -2.2072895,0.01601326 8.7185884,-4.0017078 c -1.7454984,2.3720609 -1.7354408,5.6174519 -6e-7,8.035443 z"
         transform="scale(-0.6,-0.6)" />
    </marker>
    <marker
       inkscape:stockid="Arrow2Mend05w9"
       orient="auto"
       refY="0"
       refX="0"
       id="Arrow2Mend05w9-90"
       style="overflow:visible">
      <path
         inkscape:connector-curvature="0"
         id="path10757-5"
         style="fill:#aaaaaa;fill-rule:evenodd;stroke:#aaaaaa;stroke-width:0.625;stroke-linejoin:round"
         d="M 8.7185878,4.0337352 -2.2072895,0.01601326 8.7185884,-4.0017078 c -1.7454984,2.3720609 -1.7354408,5.6174519 -6e-7,8.035443 z"
         transform="scale(-0.6,-0.6)" />
    </marker>
    <marker
       inkscape:stockid="Arrow2Mend05w9"
       orient="auto"
       refY="0"
       refX="0"
       id="Arrow2Mend05w9-4"
       style="overflow:visible">
      <path
         inkscape:connector-curvature="0"
         id="path10757-9"
         style="fill:#aaaaaa;fill-rule:evenodd;stroke:#aaaaaa;stroke-width:0.625;stroke-linejoin:round"
         d="M 8.7185878,4.0337352 -2.2072895,0.01601326 8.7185884,-4.0017078 c -1.7454984,2.3720609 -1.7354408,5.6174519 -6e-7,8.035443 z"
         transform="scale(-0.6,-0.6)" />
    </marker>
    <marker
       inkscape:stockid="Arrow2Mend05w9"
       orient="auto"
       refY="0"
       refX="0"
       id="Arrow2Mend05w9-0"
       style="overflow:visible">
      <path
         inkscape:connector-curvature="0"
         id="path10757-94"
         style="fill:#aaaaaa;fill-rule:evenodd;stroke:#aaaaaa;stroke-width:0.625;stroke-linejoin:round"
         d="M 8.7185878,4.0337352 -2.2072895,0.01601326 8.7185884,-4.0017078 c -1.7454984,2.3720609 -1.7354408,5.6174519 -6e-7,8.035443 z"
         transform="scale(-0.6,-0.6)" />
    </marker>
  </defs>
  <sodipodi:namedview
     id="base"
     pagecolor="#000000"
     bordercolor="#000000"
     borderopacity="0"
     inkscape:pageopacity="0"
     inkscape:pageshadow="2"
     inkscape:zoom="1.4"
     inkscape:cx="497.1147"
     inkscape:cy="344.11807"
     inkscape:document-units="px"
     inkscape:current-layer="layer1"
     showgrid="false"
     inkscape:window-width="3196"
     inkscape:window-height="1737"
     inkscape:window-x="0"
     inkscape:window-y="30"
     inkscape:window-maximized="0" />
  <metadata
     id="metadata7">
    <rdf:RDF>
      <cc:Work
         rdf:about="">
        <dc:format>image/svg+xml</dc:format>
        <dc:type
           rdf:resource="http://purl.org/dc/dcmitype/StillImage" />
        <dc:title></dc:title>
      </cc:Work>
    </rdf:RDF>
  </metadata>
  <g
     inkscape:label="Layer 1"
     inkscape:groupmode="layer"
     id="layer1"
     transform="translate(0,-308.26772)">
    <text
       xml:space="preserve"
       style="font-style:normal;font-variant:normal;font-weight:normal;font-stretch:normal;font-size:362.12640381px;line-height:125%;font-family:FontAwesome;-inkscape-font-specification:'FontAwesome, Normal';text-align:start;letter-spacing:0px;word-spacing:0px;writing-mode:lr-tb;text-anchor:start;fill:#1a1a1a;fill-opacity:1;stroke:none;stroke-width:1px;stroke-linecap:butt;stroke-linejoin:miter;stroke-opacity:1"
       x="-203.04068"
       y="1306.4156"
       id="text3344"
       sodipodi:linespacing="125%"><tspan
         sodipodi:role="line"
         id="tspan3346"
         x="-203.04068"
         y="1306.4156"
         style="font-size:1629.56884766px;fill:#1a1a1a"></tspan></text>
    <g
       style="font-style:normal;font-variant:normal;font-weight:normal;font-stretch:normal;font-size:157.50828552px;line-height:125%;font-family:FontAwesome;-inkscape-font-specification:'FontAwesome, Normal';text-align:start;letter-spacing:0px;word-spacing:0px;writing-mode:lr-tb;text-anchor:start;fill:#00ffff;fill-opacity:1;stroke:none;stroke-width:1px;stroke-linecap:butt;stroke-linejoin:miter;stroke-opacity:1"
       id="text3572">
      <path
         d="m 918.97491,391.33476 q 0,3.51581 -2.46106,5.97687 -2.46107,2.46107 -5.97688,2.46107 -4.48266,0 -7.03162,-3.7795 l -19.95222,-29.97228 -3.95529,0 0,11.60218 21.71013,36.12494 q 0.79105,1.31843 0.79105,2.90055 0,2.28527 -1.67001,3.95528 -1.67,1.67001 -3.95528,1.67001 l -16.87589,0 0,23.90751 q 0,4.04318 -2.90054,6.94373 -2.90055,2.90054 -6.94373,2.90054 l -14.06324,0 q -4.04318,0 -6.94372,-2.90054 -2.90054,-2.90055 -2.90054,-6.94373 l 0,-23.90751 -16.87589,0 q -2.28528,0 -3.95529,-1.67001 -1.67001,-1.67001 -1.67001,-3.95528 0,-1.58212 0.79106,-2.90055 l 21.71013,-36.12494 0,-11.60218 -3.95529,0 -19.95222,29.97228 q -2.54896,3.7795 -7.03162,3.7795 -3.51581,0 -5.97688,-2.46107 -2.46107,-2.46106 -2.46107,-5.97687 0,-2.54897 1.40633,-4.65845 l 22.50118,-33.75178 q 6.41635,-9.40479 15.46957,-9.40479 l 33.75177,0 q 9.05321,0 15.46956,9.40479 l 22.50119,33.75178 q 1.40632,2.10948 1.40632,4.65845 z M 876.6094,307.13111 q 5.80109,5.71319 5.80109,13.88745 0,8.17425 -5.80109,13.97534 -5.71319,5.71319 -13.88745,5.71319 -8.17425,0 -13.97534,-5.71319 -5.71319,-5.80109 -5.71319,-13.97534 0,-8.17426 5.71319,-13.88745 5.80109,-5.80109 13.97534,-5.80109 8.17426,0 13.88745,5.80109 z"
         style=""
         id="path4014" />
    </g>
    <g
       style="font-style:normal;font-variant:normal;font-weight:normal;font-stretch:normal;font-size:158.44038391px;line-height:125%;font-family:FontAwesome;-inkscape-font-specification:'FontAwesome, Normal';text-align:start;letter-spacing:0px;word-spacing:0px;writing-mode:lr-tb;text-anchor:start;fill:#008000;fill-opacity:1;stroke:none;stroke-width:1px;stroke-linecap:butt;stroke-linejoin:miter;stroke-opacity:1"
       id="text3576">
      <path
         d="m 613.0066,921.47453 0,36.7808 q 0,3.53662 -2.47563,6.01225 -2.47563,2.47563 -6.01225,2.47563 -3.53661,0 -6.01224,-2.47563 -2.47563,-2.47563 -2.47563,-6.01225 l 0,-31.12222 -5.65859,0 0,80.63479 q 0,4.0672 -2.91771,6.9849 -2.91771,2.9177 -6.98481,2.9177 -4.06711,0 -6.98482,-2.9177 -2.91771,-2.9177 -2.91771,-6.9849 l 0,-41.02469 -5.65858,0 0,41.02469 q 0,4.0672 -2.91771,6.9849 -2.91771,2.9177 -6.98482,2.9177 -4.06711,0 -6.98481,-2.9177 -2.91771,-2.9177 -2.91771,-6.9849 l 0,-80.63479 -5.65859,0 0,31.12222 q 0,3.53662 -2.47563,6.01225 -2.47563,2.47563 -6.01224,2.47563 -3.53662,0 -6.01225,-2.47563 -2.47563,-2.47563 -2.47563,-6.01225 l 0,-36.7808 q 0,-7.07324 4.95126,-12.0245 4.95126,-4.95126 12.02449,-4.95126 l 56.58586,0 q 7.07323,0 12.02449,4.95126 4.95126,4.95126 4.95126,12.0245 z M 581.70755,867.8948 q 5.83542,5.747 5.83542,13.96963 0,8.22263 -5.83542,14.05805 -5.747,5.747 -13.96963,5.747 -8.22263,0 -14.05805,-5.747 -5.747,-5.83542 -5.747,-14.05805 0,-8.22263 5.747,-13.96963 5.83542,-5.83542 14.05805,-5.83542 8.22263,0 13.96963,5.83542 z"
         style=""
         id="path4023" />
    </g>
    <path
       inkscape:connector-curvature="0"
       id="path8333"
       d="M 859.86213,457.14326 687.95895,401.02528"
       style="fill:none;stroke:#aaaaaa;stroke-width:3.39335108;stroke-linecap:butt;stroke-linejoin:miter;stroke-miterlimit:4;stroke-dasharray:none;stroke-opacity:1;marker-start:none;marker-end:url(#Arrow2Mend05w9)"
       sodipodi:nodetypes="cc" />
    <path
       inkscape:connector-curvature="0"
       id="path8333-3"
       d="M 688.47301,401.64508 572.05856,752.76141"
       style="fill:none;stroke:#aaaaaa;stroke-width:6.98497391;stroke-linecap:butt;stroke-linejoin:miter;stroke-miterlimit:4;stroke-dasharray:none;stroke-opacity:1;marker-start:none;marker-end:url(#Arrow2Mend05w9-9)"
       sodipodi:nodetypes="cc" />
    <path
       inkscape:connector-curvature="0"
       id="path8333-2"
       d="M 569.55042,763.21775 121.21729,679.70485"
       style="fill:none;stroke:#aaaaaa;stroke-width:6.68517923;stroke-linecap:butt;stroke-linejoin:miter;stroke-miterlimit:4;stroke-dasharray:none;stroke-opacity:1;marker-start:none;marker-end:url(#Arrow2Mend05w9-3)"
       sodipodi:nodetypes="cc" />
    <path
       inkscape:connector-curvature="0"
       id="path8333-8"
       d="M 112.47761,677.69361 381.6433,950.89528"
       style="fill:none;stroke:#aaaaaa;stroke-width:9.3688736;stroke-linecap:butt;stroke-linejoin:miter;stroke-miterlimit:4;stroke-dasharray:none;stroke-opacity:1;marker-start:none;marker-end:url(#Arrow2Mend05w9-90)"
       sodipodi:nodetypes="cc" />
    <path
       inkscape:connector-curvature="0"
       id="path8333-6"
       d="m 389.7663,961.91087 176.22097,49.75343"
       style="fill:none;stroke:#aaaaaa;stroke-width:3.23501468;stroke-linecap:butt;stroke-linejoin:miter;stroke-miterlimit:4;stroke-dasharray:none;stroke-opacity:1;marker-start:none;marker-end:url(#Arrow2Mend05w9-0)"
       sodipodi:nodetypes="cc" />
    <g
       style="font-style:normal;font-variant:normal;font-weight:normal;font-stretch:normal;font-size:40px;line-height:125%;font-family:FontAwesome;-inkscape-font-specification:'FontAwesome, Normal';text-align:start;letter-spacing:0px;word-spacing:0px;writing-mode:lr-tb;text-anchor:start;fill:#ffff00;fill-opacity:1;stroke:none;stroke-width:1px;stroke-linecap:butt;stroke-linejoin:miter;stroke-opacity:1"
       id="text3340-2-4">
      <path
         d="m 576.79614,721.30604 q 3.76674,-3.76674 3.76674,-9.0904 0,-5.32366 -3.76674,-9.0904 -3.76674,-3.76675 -9.0904,-3.76675 -5.32366,0 -9.0904,3.76675 -3.76674,3.76674 -3.76674,9.0904 0,5.32366 3.76674,9.0904 3.76674,3.76674 9.0904,3.76674 5.32366,0 9.0904,-3.76674 z m 16.62389,-9.0904 q 0,5.47433 -1.65737,8.98995 l -18.28125,38.87277 q -0.80357,1.65737 -2.41071,2.61161 -1.55692,0.95424 -3.36496,0.95424 -1.80803,0 -3.41518,-0.95424 -1.55692,-0.95424 -2.31027,-2.61161 l -18.33147,-38.87277 q -1.65736,-3.51562 -1.65736,-8.98995 0,-10.64732 7.53348,-18.18081 7.53348,-7.53348 18.1808,-7.53348 10.64732,0 18.1808,7.53348 7.53349,7.53349 7.53349,18.18081 z"
         style="font-size:90px;fill:#ffff00"
         id="path4020" />
    </g>
    <g
       style="font-style:normal;font-variant:normal;font-weight:normal;font-stretch:normal;font-size:40px;line-height:125%;font-family:FontAwesome;-inkscape-font-specification:'FontAwesome, Normal';text-align:start;letter-spacing:0px;word-spacing:0px;writing-mode:lr-tb;text-anchor:start;fill:#808000;fill-opacity:1;stroke:none;stroke-width:1px;stroke-linecap:butt;stroke-linejoin:miter;stroke-opacity:1"
       id="text3340-2">
      <path
         d="m 699.0246,356.64103 q 3.76674,-3.76674 3.76674,-9.0904 0,-5.32366 -3.76674,-9.0904 -3.76674,-3.76674 -9.0904,-3.76674 -5.32367,0 -9.09041,3.76674 -3.76674,3.76674 -3.76674,9.0904 0,5.32366 3.76674,9.0904 3.76674,3.76674 9.09041,3.76674 5.32366,0 9.0904,-3.76674 z m 16.62388,-9.0904 q 0,5.47433 -1.65736,8.98995 l -18.28125,38.87277 q -0.80358,1.65737 -2.41072,2.61161 -1.55692,0.95424 -3.36495,0.95424 -1.80804,0 -3.41518,-0.95424 -1.55692,-0.95424 -2.31027,-2.61161 l -18.33147,-38.87277 q -1.65737,-3.51562 -1.65737,-8.98995 0,-10.64732 7.53348,-18.1808 7.53348,-7.53349 18.18081,-7.53349 10.64732,0 18.1808,7.53349 7.53348,7.53348 7.53348,18.1808 z"
         style="font-size:90px;fill:#808000"
         id="path4017" />
    </g>
    <g
       style="font-style:normal;font-variant:normal;font-weight:normal;font-stretch:normal;font-size:40px;line-height:125%;font-family:FontAwesome;-inkscape-font-specification:'FontAwesome, Normal';text-align:start;letter-spacing:0px;word-spacing:0px;writing-mode:lr-tb;text-anchor:start;fill:#800000;fill-opacity:1;stroke:none;stroke-width:1px;stroke-linecap:butt;stroke-linejoin:miter;stroke-opacity:1"
       id="text3340">
      <path
         d="m 121.35583,637.37861 q 3.76675,-3.76674 3.76675,-9.0904 0,-5.32366 -3.76675,-9.0904 -3.76674,-3.76674 -9.0904,-3.76674 -5.32366,0 -9.0904,3.76674 -3.76674,3.76674 -3.76674,9.0904 0,5.32366 3.76674,9.0904 3.76674,3.76674 9.0904,3.76674 5.32366,0 9.0904,-3.76674 z m 16.62389,-9.0904 q 0,5.47433 -1.65737,8.98995 l -18.28125,38.87277 q -0.80357,1.65737 -2.41071,2.61161 -1.55692,0.95424 -3.36496,0.95424 -1.80803,0 -3.41518,-0.95424 -1.55692,-0.95424 -2.31026,-2.61161 L 88.208514,637.27816 q -1.657367,-3.51562 -1.657367,-8.98995 0,-10.64732 7.533483,-18.18081 7.53348,-7.53348 18.1808,-7.53348 10.64732,0 18.18081,7.53348 7.53348,7.53349 7.53348,18.18081 z"
         style="font-size:90px;fill:#800000"
         id="path4029" />
    </g>
    <g
       style="font-style:normal;font-variant:normal;font-weight:normal;font-stretch:normal;font-size:40px;line-height:125%;font-family:FontAwesome;-inkscape-font-specification:'FontAwesome, Normal';text-align:start;letter-spacing:0px;word-spacing:0px;writing-mode:lr-tb;text-anchor:start;fill:#ff00ff;fill-opacity:1;stroke:none;stroke-width:1px;stroke-linecap:butt;stroke-linejoin:miter;stroke-opacity:1"
       id="text3340-2-4-5">
      <path
         d="m 399.00925,921.31629 q 3.76674,-3.76674 3.76674,-9.0904 0,-5.32366 -3.76674,-9.0904 -3.76674,-3.76674 -9.0904,-3.76674 -5.32367,0 -9.09041,3.76674 -3.76674,3.76674 -3.76674,9.0904 0,5.32366 3.76674,9.0904 3.76674,3.76674 9.09041,3.76674 5.32366,0 9.0904,-3.76674 z m 16.62388,-9.0904 q 0,5.47433 -1.65737,8.98996 l -18.28125,38.87276 q -0.80357,1.65737 -2.41071,2.61161 -1.55692,0.95424 -3.36495,0.95424 -1.80804,0 -3.41518,-0.95424 -1.55692,-0.95424 -2.31027,-2.61161 l -18.33147,-38.87276 q -1.65737,-3.51563 -1.65737,-8.98996 0,-10.64732 7.53348,-18.1808 7.53348,-7.53348 18.18081,-7.53348 10.64732,0 18.1808,7.53348 7.53348,7.53348 7.53348,18.1808 z"
         style="font-size:90px;fill:#ff00ff"
         id="path4026" />
    </g>
  </g>
</svg>
